<svg width="640" height="640" viewBox="0 0 640 640" fill="none" xmlns="http://www.w3.org/2000/svg" role="img" aria-label="Abstract data motif">
  <defs>
    <linearGradient id="ifxGold" x1="88" y1="90" x2="564" y2="580" gradientUnits="userSpaceOnUse">
      <stop stop-color="#C8A45A" stop-opacity="0.75"/>
      <stop offset="1" stop-color="#5E9CFF" stop-opacity="0.45"/>
    </linearGradient>
    <radialGradient id="ifxGlow" cx="0" cy="0" r="1" gradientUnits="userSpaceOnUse" gradientTransform="translate(320 320) rotate(90) scale(290)">
      <stop stop-color="#8EB8FF" stop-opacity="0.16"/>
      <stop offset="1" stop-color="#8EB8FF" stop-opacity="0"/>
    </radialGradient>
  </defs>
  <rect x="0" y="0" width="640" height="640" fill="url(#ifxGlow)"/>
  <circle cx="320" cy="320" r="186" stroke="url(#ifxGold)" stroke-opacity="0.7" stroke-width="2"/>
  <circle cx="320" cy="320" r="126" stroke="#5E9CFF" stroke-opacity="0.32" stroke-width="2"/>
  <path d="M118 402C170 330 227 308 282 320C340 332 390 376 442 382C492 388 542 362 588 286" stroke="url(#ifxGold)" stroke-width="3" stroke-linecap="round"/>
  <path d="M98 268C164 246 222 255 274 286C338 324 398 354 472 336C530 322 576 274 610 212" stroke="#8EB8FF" stroke-opacity="0.68" stroke-width="2.5" stroke-linecap="round"/>
  <g fill="#C8A45A" fill-opacity="0.82">
    <circle cx="282" cy="320" r="6"/>
    <circle cx="442" cy="382" r="6"/>
    <circle cx="472" cy="336" r="5"/>
  </g>
</svg>

